<svg xmlns="http://www.w3.org/2000/svg" width="256" height="256" viewBox="0 0 256 256" fill="none">
  <defs>
    <linearGradient id="g" x1="40" y1="20" x2="216" y2="236" gradientUnits="userSpaceOnUse">
      <stop offset="0" stop-color="#4B3F8F"></stop>
      <stop offset="0.6" stop-color="#3B6FD8"></stop>
      <stop offset="1" stop-color="#2A2F3A"></stop>
    </linearGradient>
    <linearGradient id="gold" x1="0" y1="0" x2="1" y2="1">
      <stop offset="0" stop-color="#F5B942"></stop>
      <stop offset="1" stop-color="#D39A2F"></stop>
    </linearGradient>
  </defs>

  <!-- Shield -->
  <path d="M128 18
           C104 32 74 38 56 42
           V128
           C56 184 92 222 128 238
           C164 222 200 184 200 128
           V42
           C182 38 152 32 128 18 Z" fill="url(#g)"></path>

  <!-- Receipt -->
  <path d="M94 44
           C94 40 97 37 101 37
           H155
           C159 37 162 40 162 44
           V78
           L155 73 L148 78 L141 73 L134 78 L127 73 L120 78
           L113 73 L106 78 L99 73 L94 78
           V44 Z" fill="url(#gold)"></path>

  <!-- Subtle cross (receipt) -->
  <rect x="123" y="47" width="10" height="22" rx="3" fill="#FFFFFF"></rect>
  <rect x="116" y="54" width="24" height="10" rx="3" fill="#FFFFFF"></rect>

  <!-- Terminal (simple) -->
  <rect x="84" y="86" width="88" height="118" rx="18" fill="#FFFFFF" opacity="0.14"></rect>
  <rect x="96" y="96" width="64" height="52" rx="12" fill="#3B6FD8" opacity="0.95"></rect>

  <!-- Cross on screen -->
  <rect x="124" y="108" width="8" height="28" rx="3" fill="#FFFFFF"></rect>
  <rect x="114" y="118" width="28" height="8" rx="3" fill="#FFFFFF"></rect>

  <!-- Minimal keypad bar -->
  <rect x="100" y="158" width="56" height="10" rx="5" fill="#3B6FD8" opacity="0.85"></rect>
</svg>
